<svg aria-hidden="true" style="position: absolute; width: 0; height: 0; overflow: hidden;" version="1.1" xmlns="http://www.w3.org/2000/svg" xmlns:xlink="http://www.w3.org/1999/xlink">
    <defs>
        <symbol id="icon-chevron" viewBox="0 0 32 32">
            <path d="M9.885 31.273l15.219-15.219-15.219-15.219-3.771 3.771 11.448 11.448-11.448 11.448 3.771 3.771z"></path>
        </symbol>
        <symbol id="icon-shevrons" viewBox="0 0 13 13">
            <path d="M5.2959 2.21004L9.6209 6.50004L5.2959 10.79L6.7039 12.21L12.4609 6.50004L6.7039 0.790039L5.2959 2.21004Z"/>
            <path d="M1.7039 0.790039L0.295898 2.21004L4.6209 6.50004L0.295898 10.79L1.7039 12.21L7.4609 6.50004L1.7039 0.790039Z"/>
        </symbol>
        <symbol id="icon-email" viewBox="0 0 32 32">
            <path d="M28.19 3.556h-24.381c-1.681 0-3.048 1.367-3.048 3.048v18.286c0 1.681 1.367 3.048 3.048 3.048h24.381c1.681 0 3.048-1.367 3.048-3.048v-18.286c0-1.681-1.367-3.048-3.048-3.048zM28.19 6.603v0.779l-12.191 9.483-12.19-9.481v-0.78h24.381zM3.809 24.889v-13.647l11.255 8.754c0.267 0.21 0.596 0.323 0.936 0.323s0.669-0.114 0.936-0.323l11.255-8.754 0.003 13.647h-24.384z"></path>
        </symbol>
        <symbol id="icon-location" viewBox="0 0 32 32">
            <path d="M16 24l1.6-3.2v-8.227c2.754-0.715 4.8-3.2 4.8-6.173 0-3.53-2.87-6.4-6.4-6.4s-6.4 2.87-6.4 6.4c0 2.973 2.046 5.458 4.8 6.173v8.227l1.6 3.2zM12.8 6.4c0-1.765 1.435-3.2 3.2-3.2s3.2 1.435 3.2 3.2c0 1.765-1.435 3.2-3.2 3.2s-3.2-1.435-3.2-3.2z"></path>
            <path d="M22.827 13.701l-0.853 3.085c4.146 1.146 6.826 3.349 6.826 5.614 0 3.027-5.256 6.4-12.8 6.4s-12.8-3.373-12.8-6.4c0-2.266 2.68-4.469 6.827-5.616l-0.853-3.085c-5.659 1.565-9.174 4.898-9.174 8.701 0 5.382 7.029 9.6 16 9.6s16-4.218 16-9.6c0-3.803-3.515-7.136-9.173-8.699z"></path>
        </symbol>
        <symbol id="icon-map" viewBox="0 0 25 32">
            <path d="M12.572 18.794c3.362 0 6.095-2.734 6.095-6.095s-2.734-6.095-6.095-6.095c-3.361 0-6.095 2.734-6.095 6.095s2.734 6.095 6.095 6.095zM12.572 9.651c1.681 0 3.048 1.367 3.048 3.048s-1.367 3.048-3.048 3.048c-1.681 0-3.048-1.367-3.048-3.048s1.367-3.048 3.048-3.048z"></path>
            <path d="M11.688 30.701c0.258 0.184 0.567 0.283 0.884 0.283s0.626-0.099 0.884-0.283c0.463-0.328 11.351-8.189 11.307-18.002 0-6.722-5.469-12.19-12.19-12.19s-12.191 5.469-12.191 12.183c-0.044 9.821 10.843 17.682 11.307 18.010zM12.572 3.555c5.042 0 9.143 4.101 9.143 9.15 0.032 6.763-6.686 12.835-9.143 14.827-2.455-1.993-9.175-8.067-9.143-14.834 0-5.042 4.101-9.143 9.143-9.143z"></path>
        </symbol>
        <symbol id="icon-phone" viewBox="0 0 32 32">
            <path d="M24.135 17.438c-0.152-0.152-0.333-0.273-0.532-0.356s-0.412-0.125-0.628-0.125-0.429 0.042-0.628 0.125c-0.199 0.083-0.38 0.204-0.532 0.356l-2.616 2.616c-1.213-0.361-3.476-1.182-4.91-2.616s-2.255-3.697-2.616-4.91l2.616-2.616c0.153-0.152 0.274-0.333 0.356-0.532s0.125-0.412 0.125-0.628-0.043-0.429-0.125-0.628c-0.083-0.199-0.204-0.38-0.356-0.532l-6.564-6.564c-0.152-0.153-0.333-0.274-0.532-0.356s-0.412-0.125-0.628-0.125c-0.216 0-0.429 0.042-0.628 0.125s-0.38 0.204-0.532 0.356l-4.45 4.45c-0.624 0.624-0.975 1.48-0.962 2.355 0.038 2.337 0.656 10.453 7.053 16.85s14.513 7.014 16.852 7.053h0.046c0.866 0 1.685-0.341 2.306-0.962l4.45-4.45c0.152-0.152 0.273-0.333 0.356-0.532s0.125-0.413 0.125-0.628-0.042-0.429-0.125-0.628c-0.083-0.199-0.204-0.38-0.356-0.532l-6.564-6.566zM23.927 28.453c-2.048-0.034-9.055-0.584-14.561-6.091-5.524-5.524-6.059-12.555-6.091-14.562l3.29-3.29 4.244 4.244-2.122 2.122c-0.193 0.193-0.335 0.431-0.413 0.692s-0.090 0.538-0.034 0.805c0.039 0.189 1.003 4.664 3.727 7.388s7.199 3.687 7.388 3.727c0.267 0.057 0.544 0.047 0.805-0.031s0.499-0.22 0.691-0.414l2.124-2.122 4.244 4.244-3.292 3.29z"></path>
        </symbol>
        <symbol id="icon-subscribe" viewBox="0 0 32 32">
            <path d="M13.036 5.44l10.646 10.56-10.646 10.56 3.466 3.495 14.171-14.055-14.171-14.055-3.466 3.495z"></path>
            <path d="M4.194 1.945l-3.466 3.495 10.646 10.56-10.646 10.56 3.466 3.495 14.171-14.055-14.171-14.055z"></path>
        </symbol>
        <symbol id="icon-facebook" viewBox="0 0 31 32">
            <path d="M28.16 16.744c0-7.112-5.731-12.878-12.8-12.878s-12.8 5.766-12.8 12.878c0 6.428 4.681 11.756 10.8 12.722v-8.999h-3.25v-3.723h3.25v-2.837c0-3.228 1.911-5.010 4.835-5.010 1.401 0 2.865 0.252 2.865 0.252v3.169h-1.614c-1.59 0-2.086 0.993-2.086 2.011v2.416h3.55l-0.567 3.723h-2.983v8.999c6.119-0.966 10.8-6.294 10.8-12.722z"></path>
        </symbol>
        <symbol id="icon-instagram" viewBox="0 0 31 32">
            <path d="M15.358 6.91c3.078 0 3.442 0.014 4.652 0.068 1.125 0.050 1.732 0.238 2.137 0.396 0.536 0.207 0.922 0.459 1.323 0.86 0.405 0.405 0.652 0.788 0.864 1.323 0.158 0.405 0.346 1.017 0.396 2.137 0.054 1.215 0.068 1.579 0.068 4.653s-0.014 3.442-0.068 4.653c-0.050 1.125-0.238 1.732-0.396 2.137-0.207 0.536-0.459 0.922-0.86 1.323-0.405 0.405-0.788 0.652-1.323 0.864-0.405 0.158-1.017 0.346-2.137 0.396-1.215 0.054-1.58 0.068-4.653 0.068s-3.442-0.014-4.653-0.068c-1.125-0.050-1.732-0.238-2.137-0.396-0.536-0.207-0.922-0.459-1.323-0.86-0.405-0.405-0.652-0.787-0.864-1.322-0.158-0.405-0.346-1.017-0.396-2.137-0.054-1.215-0.068-1.579-0.068-4.653s0.014-3.442 0.068-4.653c0.050-1.125 0.238-1.732 0.396-2.137 0.207-0.536 0.459-0.922 0.86-1.323 0.405-0.405 0.788-0.652 1.323-0.864 0.405-0.158 1.017-0.346 2.137-0.396 1.21-0.054 1.575-0.068 4.653-0.068h0.001zM15.358 4.836c-3.127 0-3.518 0.014-4.747 0.068-1.224 0.054-2.065 0.252-2.794 0.536-0.76 0.297-1.404 0.688-2.042 1.332-0.644 0.639-1.035 1.282-1.332 2.038-0.284 0.734-0.482 1.57-0.536 2.794-0.054 1.233-0.068 1.624-0.068 4.751s0.014 3.518 0.068 4.747c0.054 1.224 0.252 2.065 0.536 2.794 0.297 0.76 0.688 1.404 1.332 2.042 0.639 0.639 1.282 1.035 2.038 1.328 0.734 0.284 1.57 0.482 2.794 0.536 1.228 0.054 1.62 0.068 4.747 0.068s3.519-0.014 4.747-0.068c1.224-0.054 2.065-0.252 2.794-0.536 0.756-0.292 1.4-0.688 2.038-1.328s1.035-1.282 1.328-2.038c0.284-0.734 0.482-1.57 0.536-2.794 0.054-1.228 0.068-1.62 0.068-4.747s-0.014-3.518-0.068-4.747c-0.054-1.224-0.252-2.065-0.536-2.794-0.284-0.765-0.675-1.408-1.318-2.047-0.639-0.639-1.282-1.035-2.038-1.327-0.734-0.284-1.57-0.482-2.794-0.536-1.233-0.058-1.624-0.072-4.751-0.072l-0.001 0.001z"></path>
            <path d="M15.358 10.438c-3.266 0-5.917 2.65-5.917 5.917s2.65 5.917 5.917 5.917c3.267 0 5.917-2.65 5.917-5.917s-2.65-5.917-5.917-5.917zM15.358 20.192c-2.119 0-3.838-1.719-3.838-3.838s1.718-3.838 3.838-3.838c2.119 0 3.838 1.718 3.838 3.838s-1.718 3.838-3.838 3.838z"></path>
            <path d="M22.889 10.204c0 0.763-0.618 1.381-1.381 1.381s-1.381-0.618-1.381-1.381 0.619-1.381 1.381-1.381c0.763 0 1.381 0.618 1.381 1.381z"></path>
        </symbol>
        <symbol id="icon-logo" viewBox="0 0 57 32">
            <path d="M22.968 8.795c-0.27-2.767-2.737-4.789-5.503-4.511-2.756 0.277-4.769 2.732-4.499 5.489s2.719 4.776 5.477 4.514c2.768-0.263 4.796-2.724 4.526-5.492zM19.222 5.444c0.061-0 0.107 0.012 0.164 0.028l0.012 0.003c0.022 0.112 0 0.164-0.059 0.259-0.103 0.167-0.217 0.327-0.331 0.486-0.201 0.282-0.403 0.564-0.541 0.886-0.299 0.697-0.23 1.51-0.159 2.331 0.062 0.719 0.124 1.444-0.060 2.104-0.222 0.794-0.778 1.313-1.474 1.7-0.039 0.007-0.081 0.003-0.122 0-0.009-0.001-0.017-0.001-0.025-0.002-0.005-0-0.011-0.001-0.016-0.001l-0.007-0.013c-0.040-0.075-0.042-0.080-0.013-0.166 0.037-0.111 0.111-0.225 0.181-0.333 0.027-0.041 0.053-0.081 0.076-0.12 0.242-0.403 0.479-0.839 0.554-1.31 0.093-0.588 0.043-1.193-0.006-1.797-0.063-0.767-0.125-1.535 0.102-2.268 0.28-0.9 0.935-1.37 1.723-1.789z"></path>
            <path d="M34.801 23.395c-0.314-2.686-2.746-4.61-5.432-4.297-2.688 0.313-4.613 2.746-4.299 5.433s2.748 4.612 5.435 4.297c2.686-0.315 4.609-2.747 4.296-5.433zM29.376 20.224c0.65-0.048 1.258 0.11 1.782 0.5 0.848 0.631 1.281 1.673 1.424 2.694 0.152 1.077 0.137 2.573-0.565 3.475-0.383 0.492-0.867 0.691-1.466 0.765-0.639 0.062-1.278-0.11-1.8-0.482-0.825-0.595-1.249-1.573-1.402-2.553-0.175-1.116-0.169-2.678 0.555-3.62 0.385-0.501 0.866-0.7 1.472-0.778z"></path>
            <path d="M6.894 0.245c0.872-0.114 1.858-0.025 2.706 0.189 0.516 0.13 1.030 0.307 1.558 0.381 0.303 0.043 0.621 0.039 0.927 0.045 0.050 0.849 0.213 2.883 0.115 3.63-0.156 0.030-0.276 0.022-0.433 0-0.161-0.186-0.237-0.602-0.333-0.844-0.355-0.884-1.056-1.564-1.934-1.925-1.101-0.452-2.417-0.394-3.502 0.075-1.14 0.493-2.069 1.478-2.522 2.633-0.701 1.788-0.696 4.083 0.090 5.843 0.545 1.22 1.515 2.293 2.784 2.769 1.211 0.455 2.528 0.32 3.688-0.212 0.518-0.264 0.997-0.657 1.306-1.156 0.174-0.282 0.303-0.818 0.579-1l0.077 0.031c0.297 0.376 0.408 1.55 0.506 2.055-1.119 0.986-2.468 1.639-3.951 1.835-1.941 0.255-3.967-0.137-5.535-1.347-1.428-1.102-2.295-2.833-2.509-4.607-0.249-2.062 0.206-4.142 1.511-5.783 1.202-1.512 2.971-2.396 4.874-2.614z"></path>
            <path d="M43.346 5.142c-0.52-0.129-1.148-0.199-1.681-0.133-1.243 0.122-2.306 0.601-3.114 1.576-0.895 1.092-1.32 2.495-1.182 3.9 0.124 1.198 0.675 2.389 1.63 3.147 1.004 0.797 2.422 1.021 3.668 0.874 1.106-0.131 2.086-0.608 2.772-1.501 0.314-0.408 0.542-0.869 0.721-1.35-0.022-0.021-0.044-0.042-0.066-0.064-0.106-0.104-0.215-0.212-0.358-0.255-0.013 0.006-0.023 0.010-0.033 0.014-0.043 0.018-0.061 0.026-0.097 0.080-0.592 0.871-1.269 1.447-2.328 1.645-0.825 0.154-1.646 0.012-2.338-0.473-0.551-0.387-0.986-0.957-1.24-1.578 1.266-0.751 2.642-1.511 4.099-1.809 0.288-0.059 0.582-0.092 0.875-0.125 0.308-0.035 0.615-0.069 0.914-0.134 0.2-0.043 0.344-0.084 0.412-0.296 0.17-0.533-0.099-1.403-0.367-1.862-0.491-0.84-1.352-1.423-2.288-1.655zM42.058 5.989c0.237 0.001 0.49 0.018 0.718 0.081 0.386 0.106 0.735 0.335 0.923 0.696 0.13 0.25 0.232 0.651 0.13 0.924-0.086 0.23-0.272 0.387-0.477 0.508-0.256 0.151-0.563 0.248-0.859 0.342-0.101 0.032-0.2 0.063-0.295 0.096-0.517 0.179-1.026 0.373-1.519 0.612-0.113 0.050-0.255 0.14-0.407 0.236-0.285 0.18-0.602 0.38-0.817 0.377-0.115-0.096-0.144-0.176-0.156-0.32-0.080-0.958 0.306-2.047 0.925-2.771 0.454-0.53 1.166-0.726 1.834-0.78z"></path>
            <path d="M52.658 5.050c-0.368-0.050-0.74-0.064-1.111-0.042-1.261 0.103-2.328 0.563-3.154 1.545-0.908 1.088-1.344 2.493-1.211 3.904 0.111 1.168 0.657 2.363 1.577 3.114 0.991 0.808 2.469 1.084 3.716 0.943 1.11-0.126 2.107-0.647 2.8-1.528 0.319-0.409 0.569-0.867 0.739-1.357-0.022-0.019-0.044-0.039-0.067-0.060-0.115-0.105-0.251-0.229-0.396-0.241-0.594 0.894-1.305 1.524-2.382 1.741-0.812 0.164-1.6 0.044-2.297-0.418-0.598-0.397-1.033-0.975-1.343-1.616 1.369-0.931 3.053-1.645 4.68-1.946 0.202-0.037 0.407-0.053 0.612-0.069 0.17-0.013 0.339-0.026 0.507-0.052 0.219-0.033 0.44-0.083 0.489-0.333 0.138-0.704-0.14-1.552-0.556-2.118-0.627-0.854-1.567-1.322-2.603-1.466zM51.456 6.023c0.424-0.034 0.837-0.055 1.246 0.095 0.392 0.143 0.708 0.426 0.879 0.81 0.113 0.252 0.161 0.535 0.055 0.798-0.061 0.148-0.172 0.283-0.301 0.378-0.308 0.225-1.070 0.491-1.732 0.722-0.327 0.114-0.629 0.22-0.841 0.308-0.34 0.152-0.669 0.336-0.996 0.52-0.182 0.102-0.363 0.204-0.547 0.3-0.154-0.938-0.057-1.894 0.453-2.716 0.422-0.679 1.017-1.038 1.783-1.213z"></path>
            <path d="M20.018 16.304c1.004-0.006 3.825-0.131 4.586 0.070 0.064 0.087 0.058 0.089 0.050 0.198-0.176 0.296-0.551 0.415-0.812 0.628-0.15 0.122-0.286 0.297-0.331 0.488-0.168 0.709-0.102 1.528-0.102 2.256l-0.020 3.074c-0.005 0.733 0.018 1.483-0.068 2.212-0.123 1.043-0.583 2.012-1.426 2.662-1.050 0.81-2.517 0.99-3.801 0.816-1.124-0.152-2.221-0.639-2.921-1.562-0.634-0.837-0.795-1.815-0.66-2.838 0.036-0.181 0.081-0.355 0.146-0.528 0.239-0.638 0.707-1.162 1.339-1.433 0.667-0.286 1.508-0.307 2.178-0.018 0.326 0.14 0.531 0.381 0.651 0.715 0.073 0.204 0.097 0.379 0.004 0.577-0.27 0.255-0.878-0.087-1.256 0.019-0.349 0.098-0.615 0.342-0.782 0.658-0.29 0.549-0.297 1.268-0.089 1.846 0.185 0.515 0.603 0.931 1.095 1.159 0.585 0.27 1.407 0.338 2.018 0.111 0.473-0.176 0.821-0.552 1.012-1.015 0.165-0.398 0.242-0.856 0.28-1.283 0.087-0.963 0.196-6.777-0.016-7.406-0.224-0.663-0.986-0.683-1.161-1.087 0-0.098 0.002-0.165 0.049-0.251 0.012-0.023 0.026-0.045 0.038-0.067z"></path>
            <path d="M40.762 27.076c0.428-1.060 0.798-2.152 1.192-3.225 0.308-0.836 0.688-1.7 0.876-2.57 0.040-0.185 0.058-0.369 0.006-0.554-0.158-0.565-0.887-0.52-1.052-0.956 0.023-0.096 0.009-0.137 0.101-0.196 0.169-0.108 3.144-0.119 3.509-0.073 0.121 0.015 0.208 0.043 0.288 0.14 0.008 0.21-0.042 0.305-0.231 0.412-0.303 0.171-0.688 0.258-0.915 0.539-0.357 0.443-1.702 4.23-2.034 5.091l-1.109 2.878c-0.279 0.723-0.541 1.509-0.956 2.166-0.252 0.398-0.591 0.783-1.001 1.020-0.599 0.345-1.36 0.408-2.022 0.222-0.515-0.145-0.986-0.464-1.233-0.949-0.195-0.384-0.243-0.895-0.1-1.304 0.107-0.305 0.354-0.557 0.648-0.689 0.191-0.084 0.502-0.158 0.699-0.051 0.469 0.255 0.163 1.097 0.343 1.546 0.061 0.151 0.149 0.257 0.303 0.319 0.251 0.101 0.686-0.037 0.912-0.147 0.764-0.373 1.085-1.573 1.339-2.315-0.321 0.006-0.691 0.045-1.007-0.010-0.049-0.008-0.111-0.021-0.155-0.047-0.105-0.061-0.172-0.171-0.226-0.276-0.249-0.486-0.418-1.051-0.613-1.563l-1.212-3.191c-0.239-0.627-0.455-1.281-0.748-1.884-0.218-0.45-0.51-0.909-0.959-1.157-0.223-0.123-0.516-0.121-0.667-0.345-0.026-0.152 0.001-0.245 0.048-0.39 0.804-0.033 4.036-0.117 4.63 0.049 0.033 0.113 0.038 0.27-0.007 0.382-0.071 0.176-0.412 0.231-0.569 0.294-0.169 0.068-0.316 0.171-0.382 0.349-0.072 0.197 0.024 0.513 0.081 0.712 0.246 0.872 0.643 1.734 0.97 2.583 0.409 1.060 0.777 2.16 1.253 3.191z"></path>
            <path d="M35.072 1.037c0.714-0.037 1.391 0.054 2.014 0.428 0.455 0.273 0.841 0.683 0.956 1.214 0.063 0.288 0.043 0.593-0.125 0.844-0.182 0.272-0.55 0.484-0.873 0.524-0.194 0.024-0.422-0.002-0.578-0.128-0.361-0.292-0.193-0.81-0.261-1.209-0.037-0.215-0.149-0.396-0.335-0.512-0.281-0.176-0.72-0.235-1.039-0.146-0.279 0.077-0.479 0.274-0.608 0.528-0.409 0.807-0.182 1.861 0.070 2.677 0.856 0.021 1.716 0.004 2.573 0.003 0.002 0.363-0.004 0.721-0.032 1.083-0.827-0.001-1.656-0.013-2.483 0.018-0.053 0.85-0.032 1.714-0.037 2.566-0.008 1.275-0.133 2.683 0.159 3.924 0.044 0.115 0.093 0.223 0.153 0.331 0.258 0.469 0.416 0.419 0.875 0.57 0.156 0.051 0.247 0.115 0.315 0.26-0.006 0.123-0.025 0.17-0.098 0.269-0.041 0.026-0.057 0.041-0.11 0.050-0.166 0.032-4.158 0.014-4.384-0.023-0.155-0.026-0.264-0.060-0.362-0.192 0.064-0.377 0.484-0.35 0.736-0.594 0.289-0.279 0.434-0.653 0.514-1.040 0.175-0.842 0.107-1.795 0.104-2.655l-0.016-3.479-1.633-0.006c-0.033-0.359-0.035-0.722-0.045-1.083l1.626-0.001c-0.080-0.243-0.159-0.496-0.194-0.75-0.104-0.751 0.071-1.515 0.533-2.123 0.614-0.809 1.601-1.222 2.585-1.35z"></path>
            <path d="M28.315 1.038c0.658-0.055 1.29-0.007 1.88 0.316 0.471 0.258 0.874 0.684 1.019 1.212 0.090 0.327 0.099 0.741-0.085 1.038-0.131 0.211-0.349 0.334-0.589 0.379-0.218 0.041-0.507 0.040-0.69-0.106-0.346-0.277-0.114-0.81-0.191-1.178-0.046-0.221-0.225-0.409-0.418-0.515-0.305-0.167-0.744-0.188-1.074-0.088-0.274 0.082-0.481 0.261-0.606 0.518-0.364 0.743-0.088 1.882 0.162 2.622 0.82 0.049 1.658 0.011 2.48 0.015 0.021 0.367 0.002 0.726-0.020 1.092-0.835-0.002-1.67 0.001-2.505 0.009-0.038 1.044-0.054 2.088-0.046 3.133-0.003 1.076-0.11 2.285 0.206 3.323 0.347 0.76 1.067 0.888 1.237 1.294-0.026 0.074-0.015 0.087-0.089 0.13-0.263 0.157-4.261 0.127-4.618 0.042-0.014-0.049-0.032-0.105-0.034-0.155-0.011-0.317 0.489-0.45 0.681-0.64 0.267-0.264 0.4-0.753 0.462-1.117 0.139-0.818 0.095-1.72 0.094-2.549l-0.007-3.463-1.628-0.007c-0.025-0.361-0.024-0.721-0.023-1.083 0.519 0.006 1.039 0.005 1.558-0.002-0.080-0.265-0.165-0.53-0.206-0.804-0.111-0.745 0.051-1.482 0.507-2.088 0.612-0.814 1.565-1.191 2.545-1.329z"></path>
        </symbol>
        <symbol id="icon-star-black" viewBox="0 0 34 32">
            <path d="M15.277 1.031c0.579-1.375 2.551-1.375 3.13 0l3.417 8.116c0.244 0.58 0.796 0.976 1.43 1.026l8.869 0.702c1.503 0.119 2.112 1.972 0.967 2.941l-6.757 5.718c-0.483 0.408-0.694 1.049-0.546 1.66l2.064 8.55c0.35 1.449-1.245 2.594-2.532 1.817l-7.593-4.582c-0.542-0.327-1.224-0.327-1.767 0l-7.593 4.582c-1.287 0.776-2.882-0.369-2.532-1.817l2.064-8.55c0.147-0.611-0.063-1.252-0.546-1.66l-6.757-5.718c-1.145-0.969-0.536-2.822 0.967-2.941l8.869-0.702c0.633-0.050 1.185-0.446 1.429-1.026l3.417-8.116z"></path>
        </symbol>
        <symbol id="icon-star-trans" viewBox="0 0 34 32">
            <path stroke-linejoin="miter" stroke-linecap="butt" stroke-miterlimit="4" stroke-width="1.6842" d="M16.053 1.359c0.29-0.688 1.289-0.688 1.579 0l3.416 8.115c0.368 0.873 1.197 1.465 2.14 1.539l8.868 0.702c0.771 0.061 1.046 0.986 0.49 1.457l-6.758 5.719c-0.724 0.612-1.044 1.579-0.821 2.502l2.066 8.549c0.167 0.694-0.609 1.303-1.28 0.898h-0.002l-7.59-4.581c-0.81-0.489-1.828-0.489-2.638 0l-7.592 4.581c-0.671 0.405-1.447-0.204-1.28-0.898l2.066-8.549c0.223-0.923-0.097-1.889-0.821-2.502l-6.758-5.719c-0.556-0.472-0.281-1.396 0.49-1.457l8.868-0.702c0.943-0.075 1.772-0.666 2.14-1.539l3.416-8.115z"></path>
        </symbol>
        <symbol id="icon-twitter" viewBox="0 0 31 32">
            <path d="M21.985 6.426h3.533l-7.719 8.675 9.080 11.805h-7.11l-5.569-7.16-6.372 7.16h-3.535l8.256-9.279-8.711-11.201h7.29l5.034 6.544 5.822-6.544zM20.745 24.827h1.958l-12.637-16.43h-2.101l12.78 16.43z"></path>
        </symbol>
        <symbol id="icon-burger" viewBox="0 0 43 32">
            <path d="M0 0h42.667v5.333h-42.667v-5.333zM0 13.333h42.667v5.333h-42.667v-5.333zM0 26.667h42.667v5.333h-42.667v-5.333z"></path>
        </symbol>
        <symbol id="icon-menu-close" viewBox="0 0 11 11">
            <path d="M27.179 0.918l-11.315 11.312-11.312-11.312-3.771 3.771 11.312 11.312-11.312 11.312 3.771 3.771 11.312-11.312 11.315 11.312 3.771-3.771-11.312-11.312 11.312-11.312-3.771-3.771z"></path>
        </symbol>
        <symbol id="icon-modal-close" viewBox="0 0 32 32">
            <path d="M29.671 28.728l-0.943 0.943c-0.521 0.521-1.365 0.521-1.886 0l-10.842-10.842-10.842 10.842c-0.521 0.521-1.365 0.521-1.886 0l-0.943-0.943c-0.521-0.521-0.521-1.365 0-1.886l10.842-10.842-10.842-10.842c-0.521-0.521-0.521-1.365 0-1.886l0.943-0.943c0.521-0.521 1.365-0.521 1.886 0l10.842 10.842 10.842-10.842c0.521-0.521 1.365-0.521 1.886 0l0.943 0.943c0.521 0.521 0.521 1.365 0 1.886l-10.842 10.842 10.842 10.842c0.521 0.521 0.521 1.365 0 1.886z"></path>
        </symbol>
        <symbol id="icon-box-black" viewBox="0 0 29 32">
            <path d="M28.368 8.192l-0.224-0.4c-0.289-0.484-0.696-0.886-1.184-1.168l-10.736-6.192c-0.486-0.282-1.038-0.431-1.6-0.432h-0.464c-0.562 0.001-1.114 0.15-1.6 0.432l-10.736 6.208c-0.485 0.28-0.888 0.683-1.168 1.168l-0.224 0.4c-0.282 0.486-0.431 1.038-0.432 1.6v12.4c0.001 0.562 0.15 1.114 0.432 1.6l0.224 0.4c0.288 0.479 0.689 0.88 1.168 1.168l10.752 6.192c0.484 0.288 1.037 0.437 1.6 0.432h0.448c0.562-0.001 1.114-0.15 1.6-0.432l10.736-6.208c0.49-0.274 0.894-0.678 1.168-1.168l0.24-0.4c0.279-0.488 0.427-1.038 0.432-1.6v-12.4c-0.001-0.562-0.15-1.114-0.432-1.6zM14.16 3.2h0.464l9.376 5.408-9.6 5.536-9.6-5.536 9.36-5.408zM16 28l9.36-5.408 0.24-0.4v-10.816l-9.6 5.552v11.072z"></path>
        </symbol>
        

        <symbol id="icon-coffee-logo" viewBox="0 0 114 64">
            <path d="M45.936 17.59c-0.541-5.535-5.474-9.578-11.007-9.022-5.513 0.554-9.538 5.464-8.999 10.978s5.439 9.552 10.955 9.028c5.536-0.527 9.592-5.449 9.051-10.984zM38.443 10.889c0.123-0 0.214 0.025 0.329 0.056l0.025 0.007c0.045 0.224-0 0.328-0.117 0.519-0.205 0.334-0.433 0.653-0.661 0.973-0.403 0.564-0.806 1.128-1.082 1.771-0.599 1.393-0.459 3.019-0.318 4.661 0.123 1.438 0.248 2.888-0.121 4.207-0.443 1.587-1.555 2.626-2.948 3.4-0.077 0.013-0.163 0.006-0.244 0-0.017-0.001-0.034-0.003-0.051-0.004-0.011-0.001-0.021-0.001-0.031-0.002l-0.013-0.025c-0.079-0.151-0.084-0.16-0.027-0.332 0.075-0.223 0.223-0.451 0.363-0.666 0.053-0.082 0.106-0.162 0.152-0.239 0.484-0.807 0.959-1.678 1.107-2.619 0.186-1.175 0.087-2.385-0.012-3.595-0.125-1.535-0.251-3.070 0.205-4.535 0.56-1.8 1.87-2.739 3.446-3.577z"></path>
            <path d="M69.601 46.789c-0.628-5.373-5.491-9.22-10.864-8.594-5.375 0.626-9.225 5.491-8.597 10.867s5.495 9.223 10.87 8.594c5.373-0.629 9.219-5.494 8.591-10.867zM58.752 40.448c1.3-0.096 2.516 0.22 3.564 1 1.697 1.261 2.562 3.346 2.849 5.388 0.303 2.154 0.274 5.146-1.13 6.95-0.766 0.983-1.734 1.383-2.933 1.53-1.277 0.123-2.556-0.22-3.6-0.964-1.65-1.19-2.497-3.147-2.805-5.106-0.35-2.233-0.337-5.357 1.109-7.24 0.77-1.002 1.731-1.401 2.945-1.557z"></path>
            <path d="M13.788 0.49c1.743-0.229 3.716-0.049 5.412 0.378 1.031 0.26 2.061 0.614 3.115 0.762 0.606 0.085 1.242 0.078 1.854 0.089 0.099 1.698 0.427 5.766 0.23 7.261-0.312 0.061-0.552 0.044-0.866 0.001-0.322-0.372-0.473-1.205-0.666-1.687-0.709-1.769-2.111-3.128-3.869-3.849-2.203-0.904-4.833-0.787-7.005 0.151-2.28 0.985-4.138 2.957-5.044 5.266-1.403 3.577-1.393 8.165 0.181 11.686 1.090 2.439 3.030 4.585 5.568 5.538 2.423 0.909 5.056 0.64 7.377-0.423 1.036-0.529 1.994-1.315 2.611-2.311 0.349-0.564 0.605-1.635 1.158-1.999l0.154 0.061c0.595 0.751 0.816 3.1 1.011 4.11-2.237 1.972-4.936 3.279-7.902 3.669-3.882 0.51-7.934-0.274-11.070-2.694-2.855-2.204-4.59-5.666-5.019-9.214-0.498-4.123 0.412-8.284 3.022-11.566 2.405-3.024 5.942-4.792 9.747-5.228z"></path>
            <path d="M86.693 10.283c-1.039-0.259-2.297-0.398-3.362-0.266-2.487 0.244-4.613 1.203-6.228 3.153-1.79 2.184-2.64 4.989-2.364 7.8 0.247 2.396 1.349 4.778 3.261 6.293 2.007 1.593 4.844 2.042 7.335 1.747 2.212-0.262 4.173-1.217 5.545-3.003 0.628-0.816 1.083-1.738 1.443-2.699-0.044-0.042-0.088-0.085-0.132-0.128-0.212-0.209-0.431-0.424-0.716-0.51-0.025 0.012-0.047 0.021-0.066 0.029-0.087 0.036-0.122 0.051-0.193 0.16-1.183 1.742-2.539 2.895-4.657 3.291-1.651 0.309-3.292 0.025-4.676-0.947-1.102-0.773-1.971-1.915-2.48-3.156 2.532-1.502 5.285-3.021 8.198-3.618 0.577-0.118 1.165-0.184 1.751-0.25 0.616-0.070 1.231-0.139 1.827-0.268 0.401-0.087 0.688-0.168 0.825-0.592 0.341-1.065-0.197-2.805-0.734-3.723-0.981-1.68-2.705-2.845-4.575-3.311zM84.117 11.978c0.473 0.003 0.98 0.036 1.436 0.162 0.771 0.213 1.47 0.67 1.846 1.392 0.261 0.5 0.464 1.301 0.26 1.848-0.172 0.459-0.543 0.773-0.954 1.016-0.513 0.302-1.127 0.497-1.718 0.684-0.201 0.064-0.4 0.127-0.591 0.192-1.034 0.357-2.052 0.747-3.037 1.223-0.225 0.1-0.51 0.28-0.813 0.472-0.57 0.36-1.205 0.761-1.634 0.754-0.23-0.192-0.289-0.352-0.313-0.641-0.16-1.916 0.612-4.094 1.85-5.543 0.908-1.060 2.332-1.452 3.669-1.56z"></path>
            <path d="M105.316 10.1c-0.736-0.101-1.481-0.129-2.222-0.084-2.523 0.206-4.657 1.126-6.307 3.090-1.816 2.175-2.688 4.986-2.422 7.808 0.222 2.337 1.314 4.727 3.154 6.227 1.981 1.616 4.938 2.169 7.431 1.886 2.22-0.251 4.214-1.294 5.6-3.056 0.638-0.818 1.137-1.735 1.478-2.715-0.043-0.037-0.088-0.078-0.135-0.121-0.231-0.211-0.503-0.458-0.792-0.481-1.188 1.789-2.61 3.047-4.765 3.482-1.624 0.328-3.2 0.089-4.594-0.837-1.196-0.794-2.066-1.951-2.686-3.232 2.738-1.863 6.106-3.289 9.361-3.891 0.404-0.075 0.814-0.107 1.224-0.138 0.339-0.026 0.679-0.052 1.014-0.103 0.437-0.066 0.881-0.166 0.979-0.665 0.276-1.409-0.28-3.103-1.112-4.236-1.255-1.709-3.135-2.645-5.206-2.933zM102.912 12.046c0.849-0.067 1.675-0.109 2.493 0.19 0.784 0.287 1.417 0.853 1.757 1.619 0.225 0.505 0.323 1.070 0.11 1.596-0.121 0.297-0.343 0.567-0.601 0.755-0.617 0.451-2.14 0.982-3.465 1.445-0.653 0.228-1.258 0.439-1.682 0.615-0.681 0.303-1.337 0.672-1.992 1.039-0.363 0.204-0.726 0.408-1.093 0.6-0.307-1.876-0.115-3.788 0.907-5.433 0.844-1.358 2.034-2.076 3.566-2.427z"></path>
            <path d="M40.035 32.608c2.008-0.011 7.649-0.261 9.171 0.14 0.127 0.175 0.116 0.177 0.1 0.395-0.352 0.593-1.103 0.831-1.623 1.256-0.301 0.245-0.572 0.594-0.663 0.977-0.336 1.417-0.203 3.056-0.204 4.512l-0.040 6.148c-0.011 1.467 0.035 2.966-0.137 4.423-0.246 2.086-1.167 4.024-2.852 5.323-2.101 1.62-5.033 1.98-7.601 1.632-2.249-0.304-4.443-1.278-5.841-3.124-1.268-1.674-1.59-3.63-1.321-5.676 0.071-0.361 0.162-0.711 0.291-1.056 0.479-1.276 1.415-2.324 2.677-2.866 1.334-0.572 3.015-0.614 4.355-0.036 0.652 0.28 1.063 0.763 1.303 1.43 0.147 0.408 0.195 0.757 0.007 1.154-0.54 0.511-1.756-0.174-2.511 0.038-0.697 0.195-1.23 0.684-1.564 1.317-0.579 1.099-0.593 2.535-0.179 3.691 0.369 1.031 1.206 1.863 2.191 2.319 1.17 0.541 2.814 0.676 4.036 0.221 0.947-0.352 1.642-1.105 2.024-2.029 0.329-0.796 0.483-1.712 0.561-2.567 0.175-1.925 0.391-13.554-0.033-14.812-0.447-1.327-1.973-1.366-2.322-2.174 0-0.195 0.004-0.331 0.099-0.502 0.025-0.046 0.051-0.090 0.076-0.134z"></path>
            <path d="M81.524 54.151c0.856-2.119 1.596-4.303 2.385-6.45 0.615-1.671 1.375-3.401 1.753-5.14 0.080-0.371 0.116-0.738 0.012-1.107-0.317-1.13-1.774-1.039-2.104-1.912 0.046-0.191 0.019-0.275 0.202-0.392 0.337-0.216 6.288-0.238 7.017-0.146 0.243 0.031 0.415 0.085 0.575 0.28 0.017 0.419-0.085 0.611-0.462 0.824-0.605 0.342-1.375 0.516-1.829 1.079-0.714 0.885-3.404 8.46-4.068 10.181l-2.219 5.756c-0.558 1.446-1.081 3.017-1.912 4.332-0.503 0.796-1.181 1.566-2.003 2.039-1.199 0.689-2.719 0.816-4.044 0.443-1.030-0.29-1.972-0.928-2.465-1.898-0.39-0.768-0.486-1.789-0.2-2.607 0.214-0.61 0.708-1.115 1.296-1.377 0.381-0.169 1.004-0.316 1.398-0.103 0.937 0.51 0.327 2.193 0.686 3.092 0.121 0.301 0.299 0.514 0.607 0.639 0.501 0.202 1.372-0.075 1.824-0.294 1.528-0.745 2.169-3.147 2.677-4.63-0.641 0.012-1.383 0.091-2.015-0.020-0.098-0.017-0.221-0.043-0.309-0.094-0.209-0.121-0.344-0.342-0.452-0.553-0.499-0.972-0.837-2.102-1.226-3.125l-2.425-6.381c-0.477-1.254-0.91-2.561-1.496-3.768-0.437-0.899-1.020-1.818-1.918-2.315-0.445-0.245-1.032-0.243-1.333-0.689-0.052-0.304 0.002-0.489 0.096-0.781 1.608-0.065 8.072-0.233 9.261 0.097 0.065 0.227 0.077 0.541-0.013 0.764-0.142 0.353-0.825 0.461-1.138 0.587-0.339 0.136-0.632 0.342-0.764 0.698-0.145 0.393 0.049 1.025 0.161 1.424 0.492 1.743 1.286 3.469 1.939 5.165 0.817 2.12 1.554 4.319 2.506 6.382z"></path>
            <path d="M70.144 2.073c1.428-0.074 2.783 0.108 4.029 0.855 0.91 0.545 1.682 1.366 1.911 2.428 0.125 0.576 0.086 1.187-0.249 1.687-0.364 0.543-1.1 0.967-1.746 1.048-0.388 0.049-0.844-0.004-1.155-0.256-0.722-0.583-0.386-1.62-0.523-2.418-0.075-0.429-0.298-0.791-0.669-1.024-0.562-0.353-1.441-0.469-2.079-0.292-0.557 0.154-0.959 0.549-1.216 1.057-0.817 1.613-0.365 3.722 0.14 5.354 1.712 0.043 3.432 0.008 5.146 0.006 0.005 0.727-0.008 1.442-0.063 2.167-1.655-0.002-3.313-0.027-4.966 0.036-0.105 1.7-0.064 3.428-0.075 5.132-0.016 2.55-0.267 5.366 0.317 7.847 0.089 0.23 0.187 0.446 0.306 0.663 0.516 0.938 0.833 0.837 1.75 1.14 0.313 0.103 0.494 0.23 0.63 0.521-0.012 0.247-0.050 0.34-0.196 0.539-0.081 0.051-0.114 0.081-0.22 0.101-0.332 0.063-8.316 0.029-8.768-0.046-0.31-0.052-0.529-0.121-0.724-0.384 0.129-0.753 0.967-0.7 1.471-1.188 0.578-0.558 0.868-1.307 1.029-2.080 0.349-1.683 0.215-3.591 0.208-5.309l-0.033-6.958-3.265-0.012c-0.066-0.719-0.071-1.444-0.090-2.165l3.251-0.002c-0.16-0.486-0.318-0.992-0.388-1.5-0.207-1.502 0.142-3.029 1.065-4.247 1.228-1.618 3.203-2.445 5.169-2.699z"></path>
            <path d="M56.63 2.075c1.316-0.111 2.579-0.015 3.759 0.631 0.943 0.517 1.749 1.369 2.038 2.423 0.179 0.653 0.199 1.481-0.171 2.077-0.261 0.422-0.699 0.668-1.178 0.758-0.437 0.082-1.015 0.081-1.38-0.212-0.691-0.555-0.229-1.621-0.383-2.355-0.092-0.442-0.449-0.817-0.837-1.030-0.61-0.334-1.488-0.375-2.148-0.177-0.548 0.165-0.961 0.523-1.212 1.036-0.728 1.487-0.176 3.764 0.324 5.244 1.639 0.097 3.316 0.022 4.961 0.030 0.041 0.733 0.004 1.452-0.040 2.185-1.67-0.004-3.34 0.002-5.010 0.018-0.077 2.088-0.108 4.177-0.093 6.266-0.006 2.152-0.22 4.57 0.411 6.646 0.694 1.52 2.134 1.776 2.473 2.588-0.052 0.148-0.031 0.174-0.177 0.26-0.527 0.315-8.522 0.253-9.236 0.083-0.027-0.097-0.064-0.209-0.068-0.31-0.022-0.634 0.978-0.9 1.362-1.279 0.535-0.528 0.799-1.505 0.923-2.234 0.279-1.636 0.19-3.44 0.189-5.098l-0.014-6.927-3.257-0.014c-0.049-0.723-0.049-1.442-0.045-2.166 1.039 0.011 2.078 0.010 3.116-0.004-0.161-0.529-0.33-1.060-0.412-1.608-0.222-1.491 0.102-2.963 1.014-4.175 1.224-1.628 3.13-2.382 5.091-2.657z"></path>
        </symbol>

        <symbol id="icon-settings" viewBox="0 0 32 32">
<path d="M2.562 10.126c0-0.696 0.356-1.036 0.771-1.795 1.098-2.006 1.492-1.223 3.921 0.166 0.236 0.133 0.605 0.377 0.87 0.439 0.108-0.075 0.431-0.473 0.858-0.829 0.116-0.099 0.166-0.178 0.286-0.278 0.817-0.692 1.878-1.326 2.902-1.724 0.605-0.236 1.094-0.386 1.766-0.543 0-0.709 0.004-1.418 0-2.126-0.004-0.439-0.004-0.605 0.203-0.858 0.141-0.17 0.394-0.39 0.671-0.39h2.375c0.282 0 0.535 0.22 0.672 0.39 0.211 0.253 0.207 0.419 0.207 0.858-0.008 0.709-0.004 1.418-0.004 2.126 2.28 0.531 3.37 1.206 4.957 2.545 0.216 0.182 0.373 0.269 0.589 0.535 0.369 0.46 0.282 0.39 2.006-0.655 1.028-0.622 1.89-1.364 2.611-0.402 0.153 0.207 0.311 0.514 0.439 0.746 0.506 0.924 1.38 1.861 0.162 2.62l-2.827 1.612 0.373 1.629c0.568 2.798-0.361 4.651-0.373 5.244 0.265 0.062 2.462 1.393 2.785 1.588 1.285 0.775 0.386 1.72-0.12 2.64-1.065 1.952-1.451 1.289-3.88-0.141-1.256-0.738-0.531-0.642-2.052 0.647-1.355 1.14-2.926 1.861-4.671 2.267 0 0.709-0.004 1.418 0.004 2.126 0 0.439 0.004 0.605-0.207 0.858-0.137 0.166-0.39 0.39-0.671 0.39h-2.375c-0.278 0-0.531-0.224-0.671-0.39-0.207-0.253-0.207-0.419-0.203-0.858 0.004-0.709 0-1.418 0-2.126-0.671-0.157-1.165-0.307-1.766-0.547-1.322-0.526-2.487-1.281-3.498-2.251-0.709-0.676-0.257-0.821-1.459-0.116-0.294 0.174-0.543 0.315-0.825 0.485-2.305 1.397-2.122 1.202-3.486-1.098-0.423-0.713-0.589-1.326 0.274-1.861 0.29-0.182 2.57-1.554 2.823-1.612-0.004-0.253-0.564-1.944-0.564-3.436 0-0.655 0.187-1.981 0.369-2.632 0.070-0.245 0.191-0.539 0.195-0.804l-2.785-1.592c-0.269-0.162-0.651-0.46-0.651-0.846zM11.751 3.938c-0.253 0.058-0.327 0.108-0.547 0.203-1.007 0.439-1.6 0.73-2.528 1.413-0.327 0.24-0.584 0.468-0.924 0.696l-2.354-1.397c-0.41-0.232-0.945-0.394-1.467-0.307-1.492 0.253-1.778 1.48-2.707 3.051-0.361 0.613-1.223 1.903-1.223 2.591v0.029c0 0.655 0.012 0.982 0.452 1.517 0.336 0.415 0.452 0.439 0.949 0.738 0.365 0.22 0.667 0.39 1.024 0.601 0.352 0.211 0.725 0.427 1.074 0.613-0.025 0.323-0.108 0.73-0.162 1.086-0.033 0.224-0.021 0.373-0.021 0.605-0.004 0.323-0.066 0.361-0.066 0.622l0.079 1.169c0.041 0.319 0.145 0.804 0.17 1.144-0.676 0.356-2.595 1.393-3.018 1.915-0.468 0.576-0.481 0.841-0.481 1.55v0.033c0 0.672 0.846 1.961 1.198 2.549 0.245 0.406 0.448 0.796 0.68 1.198 0.497 0.858 0.808 1.654 1.944 1.874 1.078 0.207 2.243-0.655 3.316-1.297 0.108-0.066 0.199-0.12 0.311-0.187l0.303-0.199c0.609 0.41 1.011 0.775 1.824 1.302 0.423 0.274 1.708 0.899 2.176 1.011 0 1.422-0.269 2.657 0.8 3.511 0.22 0.174 0.696 0.427 1.074 0.427h4.75c0.709 0 1.355-0.576 1.675-1.202 0.323-0.63 0.199-1.824 0.199-2.736 0.253-0.058 0.323-0.108 0.547-0.207 0.199-0.087 0.398-0.145 0.576-0.232 0.187-0.087 0.274-0.166 0.481-0.269 1.318-0.672 1.389-0.933 2.396-1.604l2.354 1.397c0.966 0.493 2.052 0.419 2.752-0.352 0.249-0.269 0.514-0.821 0.717-1.156l1.384-2.429c0.456-0.833 0.543-0.75 0.543-1.77 0-0.634-0.431-1.293-0.862-1.579l-2.64-1.546c0.062-0.742 0.178-0.779 0.187-1.691 0.004-0.323 0.066-0.361 0.066-0.622l-0.079-1.173c-0.041-0.319-0.145-0.804-0.174-1.14l2.097-1.214c1.045-0.626 1.405-1.007 1.405-2.284 0-0.671-0.846-1.965-1.202-2.553-0.663-1.103-1.061-2.243-1.936-2.814-0.195-0.124-0.431-0.203-0.684-0.253-1.016-0.195-1.828 0.415-2.723 0.953-0.216 0.128-0.381 0.216-0.593 0.34-0.112 0.066-0.203 0.12-0.315 0.187l-0.298 0.203c-1.53-1.024-1.492-1.281-3.411-2.089-0.24-0.104-0.319-0.162-0.589-0.224 0-1.472 0.265-2.657-0.8-3.511-0.224-0.178-0.701-0.427-1.074-0.427h-4.75c-0.713 0-1.355 0.572-1.675 1.198-0.323 0.634-0.199 1.824-0.199 2.74z"></path>
<path d="M12.875 16.124c0-2.446 2.317-3.921 4.348-3.038 0.344 0.149 0.655 0.369 0.933 0.63 1.492 1.384 1.248 3.979-0.613 5.016-0.904 0.502-1.766 0.613-2.769 0.178-0.34-0.145-0.651-0.369-0.933-0.626-0.473-0.439-0.966-1.277-0.966-2.16zM10.686 15.876c0 5.948 7.631 7.498 10.126 2.437 1.596-3.241-0.676-7.689-4.812-7.689-2.114 0-4.054 1.355-4.812 3.063-0.261 0.584-0.502 1.343-0.502 2.189z"></path>
</symbol>
<symbol id="icon-close-cross" viewBox="0 0 32 32">
<path d="M15.91 19.451c0.854 0.269 1.366 1.1 1.97 1.703l5.351 5.345c0.658 0.659 4.793 5.026 5.425 5.282 2.059 0.833 4.108-1.087 3.136-3.292-0.637-1.441-6.659-6.618-7.936-8.041l-4.334-4.301c0.245-0.789 1.125-1.403 1.696-1.973 0.633-0.631 1.153-1.148 1.784-1.781l7.135-7.126c0.44-0.439 1.439-1.202 1.712-1.868 0.872-2.132-1.153-4.034-3.189-3.193-0.651 0.268-4.758 4.612-5.429 5.284l-7.014 7.047-11.864-11.643c-1.014-1.221-2.626-1.105-3.558-0.171-2.023 2.026 0.513 3.862 1.118 4.469l10.69 10.653c-0.272 0.854-6.351 6.624-7.12 7.391-1.227 1.225-2.339 2.338-3.566 3.563-0.704 0.704-3.151 2.472-1.141 4.483 0.641 0.642 1.499 0.928 2.586 0.544 0.824-0.291 0.609-0.294 1.051-0.825l4.408-4.426c1.493-1.34 2.393-2.393 3.565-3.565 1.117-1.117 2.568-2.411 3.524-3.56z"></path>
</symbol>
    </defs>
</svg>